# xmcd
#
# Track frame offsets:
# 150
# 29210
# 44234
# 66250
# 78678
# 96070
# 112367
# 127334
# 134840
# 139098
# 159298
# 183018
# 196175
# 218014
# 245426
#
# Disc length: 3312 seconds
#
#
# Revision: 0
# Processed by: cddbd v1.5.2PL0 Copyright (c) Steve Scherf et al.
# Submitted via: FreeRIP 2.945 
#
DISCID=ee0cee0f
DTITLE=Yonder - Skywalk to Crescent Town
DYEAR=2007
DGENRE=Alternative
TTITLE0=Juvenile Haul
TTITLE1=Slack-Jaw
TTITLE2=Jesus Freaks
TTITLE3=Night We Touched the Stars
TTITLE4=Wear a Frown
TTITLE5=Let You Down
TTITLE6=You Got It
TTITLE7=Miss You
TTITLE8=Plastic Jesus
TTITLE9=Farmers' Pants
TTITLE10=The Night Wind
TTITLE11=Autumn Eyes
TTITLE12=If Only
TTITLE13=You Have No Idea
TTITLE14=Untitled
EXTD=
EXTT0=
EXTT1=
EXTT2=
EXTT3=
EXTT4=
EXTT5=
EXTT6=
EXTT7=
EXTT8=
EXTT9=
EXTT10=
EXTT11=
EXTT12=
EXTT13=
EXTT14=
PLAYORDER=
